<svg xmlns="http://www.w3.org/2000/svg" width="811" height="91" viewBox="0 0 811 91" role="img" aria-label="decorative wedding divider">
  <defs>
    <linearGradient id="wineGold" x1="0" x2="1" y1="0" y2="0">
      <stop offset="0" stop-color="#9f1d20"/>
      <stop offset="0.48" stop-color="#e8aa2e"/>
      <stop offset="0.52" stop-color="#e8aa2e"/>
      <stop offset="1" stop-color="#9f1d20"/>
    </linearGradient>
    <linearGradient id="softGold" x1="0" x2="0" y1="0" y2="1">
      <stop offset="0" stop-color="#f6df9b"/>
      <stop offset="1" stop-color="#e8aa2e"/>
    </linearGradient>
  </defs>
  <g fill="none" stroke-linecap="round" stroke-linejoin="round">
    <path d="M18 38c74 32 151-7 230 14 46 12 82 33 117 39" stroke="#4a1116" stroke-opacity=".15" stroke-width="10"/>
    <path d="M793 38c-74 32-151-7-230 14-46 12-82 33-117 39" stroke="#4a1116" stroke-opacity=".15" stroke-width="10"/>
    <path d="M18 36c74 28 148-8 226 11 48 12 84 31 121 39" stroke="url(#wineGold)" stroke-width="5"/>
    <path d="M793 36c-74 28-148-8-226 11-48 12-84 31-121 39" stroke="url(#wineGold)" stroke-width="5"/>
    <path d="M305 4c31 23 60 18 86 12" stroke="#e8aa2e" stroke-width="4" opacity=".9"/>
    <path d="M506 4c-31 23-60 18-86 12" stroke="#e8aa2e" stroke-width="4" opacity=".9"/>
    <path d="M329 32c22 10 42 8 58 2" stroke="#9f1d20" stroke-width="4" opacity=".85"/>
    <path d="M482 32c-22 10-42 8-58 2" stroke="#9f1d20" stroke-width="4" opacity=".85"/>
    <path d="M358 51c17 9 30 8 39 4" stroke="#e8aa2e" stroke-width="3" opacity=".9"/>
    <path d="M453 51c-17 9-30 8-39 4" stroke="#e8aa2e" stroke-width="3" opacity=".9"/>
    <path d="M405.5 78C370 46 362 21 383 11c13-6 23 5 22.5 18C405 16 416 5 429 11c21 10 12 35-23.5 67z" fill="none" stroke="#e8aa2e" stroke-width="5"/>
    <path d="M405.5 74C375 47 369 26 386 18c10-5 18 5 19.5 18C407 23 415 13 425 18c17 8 11 29-19.5 56z" fill="#fff7e6" stroke="#9f1d20" stroke-width="3"/>
  </g>
  <g fill="url(#softGold)" stroke="#9f1d20" stroke-width="2">
    <circle cx="329" cy="32" r="4"/>
    <circle cx="482" cy="32" r="4"/>
    <circle cx="358" cy="51" r="3"/>
    <circle cx="453" cy="51" r="3"/>
  </g>
</svg>
