<svg xmlns="http://www.w3.org/2000/svg" viewBox="0 0 1400 927" role="img" aria-labelledby="title desc">
  <title id="title">Nagor Samaj Samuhlagnotsav Banner</title>
  <desc id="desc">શ્રી યદુવંશી સોરઠીયા આહીર સમાજ નાગોર આયોજીત 34 મો સમૂહલગ્નોત્સવ</desc>
  <defs>
    <radialGradient id="bgGlow" cx="50%" cy="48%" r="78%">
      <stop offset="0%" stop-color="#6b1723"/>
      <stop offset="45%" stop-color="#3c0c13"/>
      <stop offset="100%" stop-color="#190508"/>
    </radialGradient>
    <linearGradient id="coralBand" x1="0%" y1="0%" x2="100%" y2="0%">
      <stop offset="0%" stop-color="#a7252f"/>
      <stop offset="45%" stop-color="#e85b47"/>
      <stop offset="100%" stop-color="#9d1f2d"/>
    </linearGradient>
    <linearGradient id="gold" x1="0%" y1="0%" x2="100%" y2="0%">
      <stop offset="0%" stop-color="#9d641c"/>
      <stop offset="24%" stop-color="#f4ce75"/>
      <stop offset="48%" stop-color="#fff0b8"/>
      <stop offset="72%" stop-color="#ca8a2a"/>
      <stop offset="100%" stop-color="#f7d98d"/>
    </linearGradient>
    <linearGradient id="ivoryText" x1="0%" y1="0%" x2="0%" y2="100%">
      <stop offset="0%" stop-color="#fff8e7"/>
      <stop offset="100%" stop-color="#f2cfa0"/>
    </linearGradient>
    <filter id="shadow" x="-20%" y="-20%" width="140%" height="140%">
      <feDropShadow dx="0" dy="18" stdDeviation="18" flood-color="#000000" flood-opacity=".42"/>
    </filter>
    <filter id="grain">
      <feTurbulence type="fractalNoise" baseFrequency=".9" numOctaves="2" stitchTiles="stitch"/>
      <feColorMatrix type="saturate" values="0"/>
      <feComponentTransfer>
        <feFuncA type="table" tableValues="0 .16"/>
      </feComponentTransfer>
    </filter>
    <path id="topArc" d="M 385 336 A 315 315 0 0 1 1015 336"/>
    <path id="bottomArc" d="M 420 672 A 285 285 0 0 0 980 672"/>
    <clipPath id="circleClip">
      <circle cx="700" cy="466" r="268"/>
    </clipPath>
  </defs>

  <rect width="1400" height="927" fill="url(#bgGlow)"/>
  <rect width="1400" height="927" filter="url(#grain)" opacity=".6"/>
  <g opacity=".16" stroke="#f4ce75" stroke-width="7" stroke-linecap="round">
    <path d="M700 -20 V92"/>
    <path d="M700 835 V947"/>
    <path d="M260 24 L340 156"/>
    <path d="M1140 24 L1060 156"/>
    <path d="M50 270 L194 318"/>
    <path d="M1350 270 L1206 318"/>
    <path d="M92 728 L220 664"/>
    <path d="M1308 728 L1180 664"/>
    <path d="M430 0 L485 104"/>
    <path d="M970 0 L915 104"/>
    <path d="M438 927 L492 820"/>
    <path d="M962 927 L908 820"/>
  </g>
  <g opacity=".08" fill="none" stroke="#fff0b8" stroke-width="2">
    <circle cx="700" cy="466" r="442"/>
    <circle cx="700" cy="466" r="372"/>
    <circle cx="700" cy="466" r="302"/>
  </g>

  <g filter="url(#shadow)">
    <circle cx="700" cy="466" r="318" fill="#24070d" opacity=".9"/>
    <circle cx="700" cy="466" r="270" fill="#55101a" opacity=".58"/>
  </g>

  <g clip-path="url(#circleClip)" opacity=".72">
    <rect x="432" y="198" width="536" height="536" fill="#3e0b13"/>
    <g transform="translate(700 446)">
      <path d="M-68 -124 C-138 -80 -145 34 -70 90 C-20 126 48 112 92 67 C28 50 -7 7 -2 -52 C2 -94 29 -118 72 -136 C21 -158 -28 -152 -68 -124Z" fill="#f2cfa0" opacity=".86"/>
      <path d="M45 -145 C128 -104 146 18 74 92 C42 124 -18 126 -68 91 C-18 61 3 23 -5 -35 C-13 -92 -42 -126 -92 -146 C-42 -169 0 -168 45 -145Z" fill="#d98b73" opacity=".84"/>
      <path d="M-128 -170 C-35 -242 91 -230 152 -136 C94 -164 26 -164 -44 -132 C-92 -110 -124 -86 -154 -44 C-174 -96 -166 -134 -128 -170Z" fill="#23070b" opacity=".72"/>
      <path d="M-94 -190 C-36 -234 56 -228 118 -184 C66 -190 12 -180 -37 -154 C-76 -134 -102 -112 -128 -78 C-146 -118 -134 -160 -94 -190Z" fill="url(#gold)" opacity=".78"/>
      <path d="M-6 -246 C28 -202 28 -164 -5 -120 C-40 -165 -40 -202 -6 -246Z" fill="#c02533"/>
      <path d="M26 -264 C74 -238 84 -198 55 -150 C19 -190 10 -225 26 -264Z" fill="#f4ce75" opacity=".78"/>
      <path d="M-44 -262 C-86 -230 -91 -190 -56 -148 C-29 -191 -24 -226 -44 -262Z" fill="#f4ce75" opacity=".72"/>
      <circle cx="-6" cy="-170" r="18" fill="#fff0b8"/>
      <circle cx="-6" cy="-170" r="8" fill="#8b121c"/>
      <path d="M-132 122 C-68 76 58 76 132 122 C98 184 -100 188 -132 122Z" fill="#8b121c" opacity=".82"/>
      <path d="M-128 -6 C-72 18 -26 19 23 -5" fill="none" stroke="#fff2d0" stroke-width="7" stroke-linecap="round" opacity=".66"/>
    </g>
    <g opacity=".36" fill="#f4ce75">
      <circle cx="552" cy="260" r="10"/>
      <circle cx="862" cy="266" r="8"/>
      <circle cx="488" cy="612" r="7"/>
      <circle cx="916" cy="594" r="9"/>
      <circle cx="700" cy="232" r="5"/>
    </g>
  </g>

  <text font-family="Noto Sans Gujarati, Eczar, serif" font-size="44" font-weight="800" fill="#ff6b4d" letter-spacing=".5">
    <textPath href="#topArc" startOffset="50%" text-anchor="middle">શ્રી યદુવંશી સોરઠીયા આહીર સમાજ નાગોર</textPath>
  </text>
  <text font-family="Noto Sans Gujarati, Eczar, serif" font-size="50" font-weight="900" fill="#f7d98d" letter-spacing=".5">
    <textPath href="#bottomArc" startOffset="50%" text-anchor="middle">34 મો સમૂહલગ્નોત્સવ</textPath>
  </text>

  <g filter="url(#shadow)">
    <path d="M220 364 H1180 V564 H220 Z" fill="url(#coralBand)" opacity=".96"/>
    <path d="M270 334 H1130 V594 H270 Z" fill="none" stroke="url(#gold)" stroke-width="7"/>
    <path d="M270 334 H600 M800 334 H1130 M270 594 H600 M800 594 H1130" stroke="#fff0b8" stroke-width="7" stroke-linecap="round"/>
    <g fill="#24070d" opacity=".55">
      <path d="M220 364 C270 360 300 392 338 365 C382 334 428 358 462 364 V564 C416 560 396 529 348 558 C302 586 258 562 220 564Z"/>
      <path d="M1180 364 C1130 360 1100 392 1062 365 C1018 334 972 358 938 364 V564 C984 560 1004 529 1052 558 C1098 586 1142 562 1180 564Z"/>
    </g>
    <text x="700" y="496" text-anchor="middle" font-family="Noto Sans Gujarati, Eczar, serif" font-size="92" font-weight="800" fill="url(#ivoryText)">આયોજીત</text>
  </g>
</svg>
